<?xml version="1.0" standalone="no"?>
<!DOCTYPE svg PUBLIC "-//W3C//DTD SVG 20010904//EN" "http://www.w3.org/TR/2001/REC-SVG-20010904/DTD/svg10.dtd">
<svg version="1.0" xmlns="http://www.w3.org/2000/svg" width="304.000000pt" height="387.000000pt" viewBox="0 0 304.000000 387.000000" preserveAspectRatio="xMidYMid meet">

  <g transform="translate(0.000000,387.000000) scale(0.100000,-0.100000)" fill="white" stroke="none">
    <path d="M326 3608 c-14 -20 -16 -184 -16 -1553 0 -1279 2 -1534 14 -1550 15 -21 11 -21 279 -17 l177 2 0 648 c0 512 3 652 13 666 14 19 54 5 577 -199 107 -42 219 -86 248 -96 28 -11 56 -28 61 -38 12 -22 7 -439 -5 -451 -5 -5 -70 -32 -144 -60 -190 -71 -207 -79 -217 -104 -11 -25 -10 -556 1 -574 5 -9 65 -12 231 -12 194 0 224 2 229 16 3 9 6 163 6 344 0 250 3 330 13 338 18 15 458 182 479 182 17 0 18 -17 18 -317 0 -175 4 -324 9 -332 8 -12 49 -14 232 -12 123 1 226 5 229 7 3 3 5 705 5 1560 0 1371 -2 1556 -15 1564 -9 6 -475 10 -1212 10 l-1197 0 -15 -22z"/>
    <path d="M2346 -92 c4 -6 8 -664 8 -1462 0 -1115 -3 -1453 -12 -1462 -15 -15 -245 -17 -268 -2 -13 8 -15 55 -12 342 2 183 -1 339 -5 345 -12 16 -13 16 -333 -111 l-265 -105 -5 232 c-3 128 -8 237 -12 243 -9 13 -66 37 -293 125 -232 88 -450 173 -609 235 -76 30 -146 54 -155 52 -14 -3 -16 -67 -21 -683 l-5 -680 -129 -3 c-71 -1 -133 1 -137 5 -10 10 -14 2906 -4 2922 4 7 17 17 29 22 32 14 2219 0 2228 -15z"/>
    <path d="M987 -2855 c4 -143 4 -269 0 -280 -6 -20 -13 -21 -139 -21 -89 0 -136 4 -144 12 -9 9 -12 70 -12 214 0 236 -3 229 105 267 39 14 90 35 115 46 25 11 50 21 56 21 8 0 14 -79 19 -259z"/>
    <path d="M1563 3225 c-8 -22 3 -83 21 -110 11 -16 96 -55 310 -140 163 -64 303 -115 311 -111 19 7 21 104 3 129 -7 9 -78 42 -158 73 -390 151 -453 174 -466 174 -8 0 -17 -7 -21 -15z"/>
    <path d="M1565 2939 c-11 -63 7 -93 73 -122 72 -33 522 -204 542 -207 36 -5 40 0 40 51 0 28 -4 59 -10 69 -6 11 -62 39 -142 70 -73 28 -206 80 -294 116 -89 35 -171 64 -182 64 -16 0 -22 -9 -27 -41z"/>
    <path d="M1568 2680 c-1 -27 -2 -58 -2 -67 -1 -12 15 -26 44 -41 63 -31 558 -222 584 -225 19 -2 21 4 24 59 2 41 -1 64 -10 72 -8 6 -88 40 -178 75 -327 129 -452 177 -456 177 -2 0 -5 -22 -6 -50z"/>
    <path d="M1567 2408 c-8 -66 8 -93 65 -109 24 -7 159 -59 302 -116 142 -57 264 -103 272 -103 17 0 19 63 3 108 -12 36 -9 34 -294 147 -121 47 -241 95 -267 105 -69 29 -74 27 -81 -32z"/>
    <path d="M1572 2188 c-18 -18 -15 -68 6 -103 16 -26 50 -42 238 -118 285 -113 383 -149 395 -142 5 4 9 30 9 60 0 81 24 67 -405 234 -212 82 -226 86 -243 69z"/>
    <path d="M1564 1913 c-12 -45 16 -105 56 -126 79 -39 580 -228 590 -222 14 9 13 108 -2 127 -7 9 -76 41 -153 71 -210 83 -463 177 -474 177 -6 0 -14 -12 -17 -27z"/>
    <path d="M1876 1503 c-5 -47 -4 -60 11 -74 22 -22 245 -109 278 -109 55 0 75 102 25 141 -16 13 -103 50 -193 82 -90 31 -165 57 -167 57 -2 0 -5 -42 -7 -97z"/>
  </g>
</svg>