<?xml version="1.0" standalone="no"?>
<!DOCTYPE svg PUBLIC "-//W3C//DTD SVG 20010904//EN"
 "http://www.w3.org/TR/2001/REC-SVG-20010904/DTD/svg10.dtd">
<svg version="1.0" xmlns="http://www.w3.org/2000/svg"
 width="2560.000000pt" height="914.000000pt" viewBox="0 0 2560.000000 914.000000"
 preserveAspectRatio="xMidYMid meet">

<g transform="translate(0.000000,914.000000) scale(0.100000,-0.100000)"
fill="#CED4DA" stroke="none">
<path d="M2031 7659 c-106 -21 -330 -154 -502 -297 -381 -319 -683 -827 -776
-1301 -20 -104 -22 -321 -4 -406 40 -192 119 -346 248 -485 134 -146 333 -260
456 -262 60 -2 87 23 87 81 0 36 -7 50 -102 213 -235 404 -153 1159 184 1703
63 102 196 263 258 313 57 47 74 40 80 -29 9 -100 -9 -3476 -20 -3724 -12
-283 -36 -463 -86 -641 -67 -236 -74 -269 -68 -297 16 -75 133 -58 286 42 270
176 438 472 508 896 38 227 43 500 44 2271 l1 1690 -27 41 c-53 80 -210 159
-373 188 -96 16 -128 17 -194 4z"/>
<path d="M8675 7660 c-110 -24 -116 -52 -136 -620 -6 -184 -13 -337 -14 -338
-2 -2 -111 1 -242 7 -131 6 -279 11 -329 11 -85 0 -92 -1 -117 -27 -54 -57
-97 -194 -97 -311 0 -82 17 -127 52 -135 13 -3 175 -9 361 -13 l337 -7 0 -746
0 -746 -26 -100 c-68 -267 -209 -525 -395 -718 l-89 -92 8 55 c4 30 7 100 6
155 -2 177 -61 332 -190 493 -86 108 -171 180 -509 434 -154 116 -286 216
-293 223 -11 10 -4 25 42 84 173 225 287 489 273 638 -15 159 -118 233 -327
233 -100 0 -163 -16 -269 -68 -152 -74 -280 -214 -346 -379 -59 -145 -67 -291
-24 -420 19 -59 104 -203 128 -217 6 -4 11 -13 11 -20 0 -27 -244 -473 -457
-834 -246 -418 -375 -570 -474 -560 -62 6 -91 81 -110 283 -15 153 -6 855 16
1359 12 276 13 381 5 420 -25 117 -121 206 -334 311 -138 68 -194 81 -295 66
-193 -29 -369 -166 -536 -416 -144 -216 -222 -386 -392 -855 -63 -173 -117
-317 -120 -320 -2 -3 -1 316 3 707 6 656 6 714 -10 737 -49 76 -395 178 -497
147 -78 -23 -71 76 -81 -1239 -9 -1298 -5 -1456 36 -1588 30 -95 83 -162 148
-190 65 -26 302 -33 364 -9 56 21 70 44 79 125 37 353 200 963 377 1414 71
178 231 497 319 631 131 202 262 354 293 342 21 -8 21 20 -10 -699 -35 -828
-29 -1132 31 -1399 34 -152 76 -248 141 -319 68 -73 131 -101 236 -108 167
-10 323 65 512 247 187 181 278 312 663 956 168 281 311 520 319 533 15 22 17
21 179 -128 299 -275 389 -385 454 -555 32 -84 35 -98 35 -205 0 -93 -4 -126
-21 -172 -45 -122 -122 -195 -229 -219 -103 -23 -237 25 -395 142 -123 91
-138 99 -195 99 -43 0 -58 -6 -97 -35 -91 -69 -196 -255 -197 -348 0 -79 56
-137 195 -203 162 -76 406 -124 636 -124 229 0 394 37 584 129 318 156 569
437 771 865 32 69 61 126 64 126 3 0 11 -48 18 -106 67 -558 282 -904 617
-989 32 -8 99 -15 147 -15 156 0 259 51 414 205 133 133 242 298 318 485 19
44 36 83 38 86 3 2 20 -42 38 -98 115 -367 334 -599 623 -663 95 -21 278 -16
372 9 74 20 207 83 283 133 123 81 251 224 341 378 22 38 42 62 44 54 2 -8 11
-45 21 -84 44 -189 171 -353 336 -433 107 -52 184 -72 280 -72 254 1 469 154
606 433 l27 55 51 -86 c73 -125 213 -264 323 -320 112 -58 211 -82 337 -82
119 0 200 16 315 60 155 60 350 213 441 348 19 29 38 52 43 52 4 0 7 -55 7
-122 0 -68 3 -132 5 -143 5 -16 -56 -77 -312 -312 -657 -602 -861 -846 -953
-1138 -34 -108 -39 -303 -11 -415 29 -117 75 -202 151 -283 101 -108 214 -175
372 -221 346 -100 674 -13 933 248 45 45 100 109 123 144 121 177 202 438 259
827 16 104 18 198 18 690 l0 570 79 95 c415 496 781 1130 1017 1760 l58 155
232 8 c189 6 236 5 246 -6 12 -11 9 -36 -16 -148 -76 -342 -105 -591 -105
-909 -1 -319 27 -508 104 -707 122 -317 393 -535 682 -551 85 -4 107 -1 181
21 172 54 319 183 423 371 l37 68 27 -51 c105 -192 291 -341 486 -391 94 -24
242 -26 343 -5 268 56 510 242 674 519 l42 70 8 -35 c56 -224 165 -384 325
-478 117 -69 179 -85 322 -86 147 0 201 14 300 80 94 63 163 147 241 299 l47
90 6 -80 c16 -207 26 -268 49 -292 58 -63 199 -102 365 -102 212 0 279 24 302
109 5 20 14 173 20 341 16 471 37 656 101 915 73 293 154 525 253 730 70 143
98 185 125 185 23 0 31 -52 31 -194 0 -309 58 -991 110 -1296 51 -298 108
-419 240 -506 122 -81 398 -66 443 23 10 19 16 79 20 183 14 369 107 869 232
1245 90 273 217 585 237 585 7 0 8 -104 4 -317 -11 -491 14 -967 65 -1231 68
-351 218 -589 442 -701 105 -52 180 -71 287 -71 155 0 270 50 378 165 37 39
82 97 101 129 104 175 201 580 172 718 -21 97 -75 137 -139 104 -41 -21 -65
-77 -106 -242 -57 -229 -100 -335 -164 -406 -83 -92 -192 -91 -276 3 -101 111
-156 323 -177 684 -13 213 -6 1058 11 1340 8 145 8 178 -6 224 -32 111 -165
207 -395 285 -184 63 -300 47 -375 -52 -59 -76 -232 -542 -339 -912 -69 -238
-155 -628 -155 -704 0 -6 -3 -6 -9 0 -23 22 -58 545 -70 1044 -9 368 -14 396
-92 484 -120 137 -429 225 -555 159 -97 -51 -173 -218 -385 -843 l-138 -405 0
543 c-1 484 -3 548 -17 579 -28 57 -61 71 -276 118 -123 26 -226 32 -259 15
-10 -6 -26 -25 -36 -43 -15 -28 -18 -88 -24 -522 -4 -269 -8 -683 -8 -920 -1
-389 -3 -438 -20 -510 -32 -131 -69 -233 -131 -360 -101 -207 -198 -301 -309
-299 -247 4 -311 337 -283 1472 7 274 16 606 19 740 l6 242 -44 43 c-53 50
-126 80 -259 107 -233 48 -318 11 -328 -144 l-5 -75 -37 47 c-48 60 -132 139
-193 181 -184 126 -460 147 -673 51 -244 -110 -464 -397 -593 -773 -128 -372
-165 -907 -94 -1359 15 -100 15 -110 -1 -170 -63 -223 -186 -361 -325 -362
-241 -1 -378 391 -350 999 11 241 33 382 126 800 67 301 72 379 32 465 -28 58
-76 113 -118 135 -87 44 -222 48 -402 9 -142 -31 -502 -93 -508 -88 -2 2 2 47
9 101 17 136 0 218 -61 287 -62 72 -171 103 -295 85 -102 -14 -175 -51 -243
-125 -101 -107 -146 -237 -139 -399 5 -119 34 -183 122 -271 l65 -65 -25 -93
c-69 -268 -220 -642 -364 -906 -112 -206 -316 -530 -332 -530 -14 0 -4 1332
14 1988 2 76 -15 104 -90 145 -66 36 -222 75 -326 83 -72 5 -86 3 -125 -18
-65 -33 -83 -63 -89 -146 l-5 -71 -37 47 c-48 60 -132 139 -193 181 -185 126
-460 147 -674 51 -355 -160 -629 -667 -705 -1305 -19 -158 -16 -661 4 -780 15
-88 15 -92 -9 -175 -38 -135 -97 -245 -173 -322 -78 -79 -120 -96 -204 -78
-61 13 -115 53 -150 113 -34 58 -73 200 -92 337 -25 179 -29 768 -10 1387 21
670 22 606 -14 646 -56 64 -231 123 -395 133 -77 5 -95 3 -125 -14 -59 -32
-80 -74 -80 -156 l0 -71 -27 35 c-46 62 -157 164 -223 207 -189 122 -452 137
-670 36 -149 -68 -278 -191 -402 -383 -195 -300 -292 -676 -318 -1228 -10
-230 -40 -336 -152 -556 -139 -270 -342 -442 -461 -392 -129 53 -205 299 -223
711 -9 222 34 1879 51 1961 5 21 9 21 412 27 464 7 436 1 485 97 48 97 62 250
26 287 -29 29 -130 39 -643 63 -126 6 -239 14 -249 17 -18 5 -19 15 -12 207 4
110 11 285 16 388 7 135 7 194 -1 212 -7 14 -36 38 -68 54 -128 68 -427 140
-506 122z m2670 -2040 c137 -67 226 -232 271 -505 26 -150 26 -581 0 -765 -54
-399 -161 -664 -328 -815 -152 -138 -327 -134 -441 10 -132 166 -198 448 -199
845 -1 683 154 1130 431 1241 68 28 198 23 266 -11z m2847 20 c182 -51 289
-288 307 -680 8 -191 -3 -497 -24 -635 -37 -250 -114 -500 -197 -639 -54 -91
-149 -185 -224 -222 -78 -38 -176 -40 -242 -6 -138 73 -230 266 -279 582 -24
157 -24 542 1 720 68 498 228 803 459 875 51 17 149 19 199 5z m5047 -25 c187
-103 281 -398 281 -889 0 -679 -201 -1196 -498 -1282 -106 -31 -191 -4 -278
88 -139 147 -207 430 -207 868 -1 691 146 1120 421 1231 37 15 67 19 137 16
77 -2 98 -7 144 -32z m-4679 -3520 c-27 -374 -97 -664 -194 -808 -78 -116
-199 -181 -336 -182 -66 0 -85 5 -142 33 -73 36 -114 79 -151 159 -29 64 -31
235 -3 333 82 282 281 566 696 994 l135 138 3 -258 c2 -143 -2 -326 -8 -409z"/>
</g>
</svg>
