<?xml version="1.0" standalone="no"?>
<!DOCTYPE svg PUBLIC "-//W3C//DTD SVG 20010904//EN"
 "http://www.w3.org/TR/2001/REC-SVG-20010904/DTD/svg10.dtd">
<svg version="1.0" xmlns="http://www.w3.org/2000/svg"
 width="512.000000pt" height="512.000000pt" viewBox="0 0 512.000000 512.000000"
 preserveAspectRatio="xMidYMid meet">

<g transform="translate(0.000000,512.000000) scale(0.100000,-0.100000)"
fill="#060338" stroke="none">
<path d="M2492 5109 c-45 -13 -108 -80 -121 -126 -8 -26 -11 -699 -11 -2168
l0 -2130 -367 367 c-203 202 -381 372 -396 378 -37 13 -118 13 -154 -1 -97
-36 -149 -167 -105 -261 20 -43 1062 -1104 1120 -1140 52 -33 152 -33 204 0
58 36 1100 1097 1120 1140 44 94 -8 225 -105 261 -40 15 -122 14 -160 -3 -18
-8 -192 -174 -392 -375 l-360 -361 -5 2147 -5 2148 -24 38 c-47 76 -151 113
-239 86z"/>
</g>
</svg>
